<svg xmlns="http://www.w3.org/2000/svg" xmlns:xlink="http://www.w3.org/1999/xlink" width="250" zoomAndPan="magnify" viewBox="0 0 187.5 60" height="80" preserveAspectRatio="xMidYMid meet" version="1.2"><defs/><g id="a00f46b1dc"><g style="fill:#e27224;fill-opacity:1;"><g transform="translate(1.818659, 42.607929)"><path style="stroke:none" d="M 23.859375 -28.03125 C 25.773438 -28.03125 27.441406 -27.742188 28.859375 -27.171875 C 30.273438 -26.597656 31.351562 -25.8125 32.09375 -24.8125 C 32.84375 -23.8125 33.21875 -22.671875 33.21875 -21.390625 C 33.21875 -20.660156 33.117188 -19.984375 32.921875 -19.359375 C 32.109375 -16.523438 29.765625 -14.726562 25.890625 -13.96875 C 27.234375 -13.582031 28.296875 -12.929688 29.078125 -12.015625 C 29.867188 -11.109375 30.265625 -9.976562 30.265625 -8.625 C 30.265625 -8.007812 30.148438 -7.28125 29.921875 -6.4375 C 29.304688 -4.25 28.066406 -2.628906 26.203125 -1.578125 C 24.335938 -0.523438 21.691406 0 18.265625 0 L 0.75 0 C 0.164062 0 -0.285156 -0.0976562 -0.609375 -0.296875 C -0.929688 -0.492188 -1.09375 -0.757812 -1.09375 -1.09375 C -1.09375 -1.257812 -1.050781 -1.441406 -0.96875 -1.640625 C -0.851562 -1.953125 -0.671875 -2.191406 -0.421875 -2.359375 C -0.171875 -2.523438 -0.015625 -2.625 0.046875 -2.65625 C 0.492188 -2.9375 0.859375 -3.222656 1.140625 -3.515625 C 1.421875 -3.804688 1.660156 -4.289062 1.859375 -4.96875 L 6.984375 -23.109375 C 7.097656 -23.472656 7.15625 -23.820312 7.15625 -24.15625 C 7.15625 -24.46875 7.101562 -24.726562 7 -24.9375 C 6.90625 -25.144531 6.773438 -25.390625 6.609375 -25.671875 C 6.359375 -26.035156 6.234375 -26.332031 6.234375 -26.5625 C 6.234375 -26.644531 6.257812 -26.800781 6.3125 -27.03125 C 6.425781 -27.394531 6.671875 -27.648438 7.046875 -27.796875 C 7.429688 -27.953125 8.015625 -28.03125 8.796875 -28.03125 Z M 21.96875 -20.328125 C 22.164062 -20.941406 22.265625 -21.519531 22.265625 -22.0625 C 22.265625 -23.519531 21.4375 -24.25 19.78125 -24.25 L 17.890625 -24.25 L 15.65625 -16.375 L 17.515625 -16.375 C 18.691406 -16.375 19.625 -16.660156 20.3125 -17.234375 C 21 -17.804688 21.550781 -18.835938 21.96875 -20.328125 Z M 18.90625 -7.953125 C 19.09375 -8.628906 19.1875 -9.25 19.1875 -9.8125 C 19.1875 -11.320312 18.316406 -12.078125 16.578125 -12.078125 L 14.484375 -12.078125 L 12.078125 -3.78125 L 14.234375 -3.78125 C 15.429688 -3.78125 16.394531 -4.082031 17.125 -4.6875 C 17.863281 -5.289062 18.457031 -6.378906 18.90625 -7.953125 Z M 18.90625 -7.953125 "/></g></g><g style="fill:#e27224;fill-opacity:1;"><g transform="translate(30.941127, 42.607929)"><path style="stroke:none" d="M 20.671875 -22.265625 C 22.242188 -22.265625 23.5 -21.785156 24.4375 -20.828125 C 25.375 -19.878906 25.84375 -18.703125 25.84375 -17.296875 C 25.84375 -16.765625 25.785156 -16.273438 25.671875 -15.828125 C 25.390625 -14.671875 24.859375 -13.785156 24.078125 -13.171875 C 23.296875 -12.554688 22.351562 -12.25 21.25 -12.25 C 20.1875 -12.25 19.378906 -12.5 18.828125 -13 C 18.285156 -13.507812 17.804688 -14.1875 17.390625 -15.03125 C 17.160156 -15.507812 16.945312 -15.859375 16.75 -16.078125 C 16.550781 -16.304688 16.328125 -16.421875 16.078125 -16.421875 C 15.796875 -16.421875 15.550781 -16.304688 15.34375 -16.078125 C 15.132812 -15.859375 14.945312 -15.46875 14.78125 -14.90625 L 11.53125 -4.375 C 11.476562 -4.238281 11.453125 -4.03125 11.453125 -3.75 C 11.453125 -3.382812 11.554688 -3.082031 11.765625 -2.84375 C 11.972656 -2.601562 12.257812 -2.367188 12.625 -2.140625 C 12.96875 -1.921875 13.191406 -1.738281 13.296875 -1.59375 C 13.410156 -1.457031 13.453125 -1.273438 13.421875 -1.046875 C 13.367188 -0.679688 13.164062 -0.414062 12.8125 -0.25 C 12.46875 -0.0820312 11.875 0 11.03125 0 L 0.25 0 C -0.476562 0 -1.003906 -0.117188 -1.328125 -0.359375 C -1.648438 -0.597656 -1.769531 -0.914062 -1.6875 -1.3125 C -1.570312 -1.644531 -1.273438 -1.9375 -0.796875 -2.1875 C -0.378906 -2.414062 -0.03125 -2.679688 0.25 -2.984375 C 0.53125 -3.296875 0.769531 -3.789062 0.96875 -4.46875 L 4.71875 -16.625 C 4.769531 -16.769531 4.796875 -16.96875 4.796875 -17.21875 C 4.796875 -17.519531 4.734375 -17.753906 4.609375 -17.921875 C 4.484375 -18.097656 4.28125 -18.3125 4 -18.5625 C 3.71875 -18.789062 3.519531 -18.988281 3.40625 -19.15625 C 3.289062 -19.320312 3.28125 -19.546875 3.375 -19.828125 C 3.539062 -20.472656 4.421875 -21.039062 6.015625 -21.53125 C 7.617188 -22.019531 9.289062 -22.265625 11.03125 -22.265625 C 12.175781 -22.265625 13.128906 -22.003906 13.890625 -21.484375 C 14.648438 -20.960938 15.140625 -20.226562 15.359375 -19.28125 C 16.710938 -21.269531 18.484375 -22.265625 20.671875 -22.265625 Z M 20.671875 -22.265625 "/></g></g><g style="fill:#e27224;fill-opacity:1;"><g transform="translate(52.403934, 42.607929)"><path style="stroke:none" d="M 16.296875 -22.265625 C 20.109375 -22.265625 22.914062 -21.492188 24.71875 -19.953125 C 26.53125 -18.410156 27.4375 -16.390625 27.4375 -13.890625 C 27.4375 -13.046875 27.328125 -12.109375 27.109375 -11.078125 C 26.578125 -8.773438 25.582031 -6.757812 24.125 -5.03125 C 22.664062 -3.300781 20.875 -1.96875 18.75 -1.03125 C 16.632812 -0.09375 14.34375 0.375 11.875 0.375 C 7.96875 0.375 5.082031 -0.398438 3.21875 -1.953125 C 1.351562 -3.515625 0.421875 -5.585938 0.421875 -8.171875 C 0.421875 -9.035156 0.53125 -10.003906 0.75 -11.078125 C 1.289062 -13.265625 2.3125 -15.207031 3.8125 -16.90625 C 5.3125 -18.601562 7.148438 -19.921875 9.328125 -20.859375 C 11.503906 -21.796875 13.828125 -22.265625 16.296875 -22.265625 Z M 16.15625 -18.515625 C 15.570312 -18.515625 14.945312 -17.988281 14.28125 -16.9375 C 13.625 -15.882812 12.847656 -13.898438 11.953125 -10.984375 C 11.054688 -8.066406 10.609375 -6.019531 10.609375 -4.84375 C 10.609375 -4.226562 10.707031 -3.8125 10.90625 -3.59375 C 11.101562 -3.382812 11.367188 -3.28125 11.703125 -3.28125 C 12.296875 -3.226562 12.90625 -3.734375 13.53125 -4.796875 C 14.164062 -5.859375 14.957031 -7.9375 15.90625 -11.03125 C 16.78125 -13.75 17.21875 -15.726562 17.21875 -16.96875 C 17.21875 -17.550781 17.125 -17.953125 16.9375 -18.171875 C 16.757812 -18.398438 16.5 -18.515625 16.15625 -18.515625 Z M 16.15625 -18.515625 "/></g></g><g style="fill:#e27224;fill-opacity:1;"><g transform="translate(77.10737, 42.607929)"><path style="stroke:none" d="M 18.8125 -21.71875 C 19.34375 -21.71875 19.753906 -21.601562 20.046875 -21.375 C 20.347656 -21.15625 20.5 -20.847656 20.5 -20.453125 C 20.5 -20.347656 20.472656 -20.15625 20.421875 -19.875 C 20.054688 -18.632812 19.210938 -18.015625 17.890625 -18.015625 L 15.453125 -18.015625 L 12.296875 -7.625 C 12.148438 -7.195312 12.078125 -6.757812 12.078125 -6.3125 C 12.078125 -5.8125 12.21875 -5.460938 12.5 -5.265625 C 12.78125 -5.066406 13.175781 -4.96875 13.6875 -4.96875 C 14.132812 -4.96875 14.691406 -5.023438 15.359375 -5.140625 C 15.703125 -5.222656 16 -5.265625 16.25 -5.265625 C 16.445312 -5.265625 16.59375 -5.203125 16.6875 -5.078125 C 16.789062 -4.953125 16.84375 -4.789062 16.84375 -4.59375 C 16.863281 -4.03125 16.445312 -3.347656 15.59375 -2.546875 C 14.738281 -1.742188 13.582031 -1.054688 12.125 -0.484375 C 10.664062 0.0859375 9.050781 0.375 7.28125 0.375 C 5.375 0.375 3.84375 -0.0546875 2.6875 -0.921875 C 1.539062 -1.796875 0.96875 -2.988281 0.96875 -4.5 C 0.96875 -5.207031 1.082031 -5.882812 1.3125 -6.53125 L 4 -14.859375 C 4.132812 -15.335938 4.203125 -15.71875 4.203125 -16 C 4.203125 -16.5625 4.066406 -17.035156 3.796875 -17.421875 C 3.535156 -17.816406 3.164062 -18.222656 2.6875 -18.640625 C 2.269531 -19.035156 1.976562 -19.363281 1.8125 -19.625 C 1.644531 -19.894531 1.601562 -20.210938 1.6875 -20.578125 C 1.800781 -20.941406 2.039062 -21.222656 2.40625 -21.421875 C 2.769531 -21.617188 3.34375 -21.71875 4.125 -21.71875 L 6.484375 -21.71875 L 9.140625 -24.375 C 10.066406 -25.300781 10.914062 -25.945312 11.6875 -26.3125 C 12.457031 -26.675781 13.457031 -26.859375 14.6875 -26.859375 C 16.457031 -26.859375 17.34375 -26.179688 17.34375 -24.828125 C 17.34375 -24.410156 17.285156 -24.019531 17.171875 -23.65625 L 16.578125 -21.71875 Z M 18.8125 -21.71875 "/></g></g><g style="fill:#e27224;fill-opacity:1;"><g transform="translate(92.299347, 42.607929)"><path style="stroke:none" d="M 25.796875 -5.8125 C 25.742188 -5.695312 25.71875 -5.523438 25.71875 -5.296875 C 25.71875 -5.109375 25.765625 -4.957031 25.859375 -4.84375 C 25.960938 -4.726562 26.097656 -4.671875 26.265625 -4.671875 C 26.597656 -4.671875 26.882812 -4.816406 27.125 -5.109375 C 27.363281 -5.410156 27.523438 -5.5625 27.609375 -5.5625 C 27.753906 -5.5625 27.867188 -5.46875 27.953125 -5.28125 C 28.035156 -5.101562 28.078125 -4.882812 28.078125 -4.625 C 28.109375 -3.8125 27.84375 -3.019531 27.28125 -2.25 C 26.71875 -1.476562 25.894531 -0.847656 24.8125 -0.359375 C 23.726562 0.128906 22.429688 0.375 20.921875 0.375 C 19.066406 0.375 17.59375 -0.0507812 16.5 -0.90625 C 15.40625 -1.757812 14.84375 -2.898438 14.8125 -4.328125 C 14.8125 -5.367188 15.066406 -6.535156 15.578125 -7.828125 L 17.890625 -13.890625 C 18.023438 -14.253906 18.09375 -14.550781 18.09375 -14.78125 C 18.09375 -15.144531 17.972656 -15.429688 17.734375 -15.640625 C 17.503906 -15.847656 17.21875 -15.953125 16.875 -15.953125 C 16.34375 -15.953125 15.800781 -15.707031 15.25 -15.21875 C 14.707031 -14.726562 14.269531 -13.9375 13.9375 -12.84375 L 13.9375 -12.921875 L 11.28125 -4.375 C 11.195312 -4.039062 11.15625 -3.75 11.15625 -3.5 C 11.15625 -3.132812 11.222656 -2.84375 11.359375 -2.625 C 11.503906 -2.414062 11.703125 -2.210938 11.953125 -2.015625 C 12.148438 -1.816406 12.289062 -1.65625 12.375 -1.53125 C 12.457031 -1.40625 12.472656 -1.242188 12.421875 -1.046875 C 12.273438 -0.679688 11.988281 -0.414062 11.5625 -0.25 C 11.144531 -0.0820312 10.503906 0 9.640625 0 L 0.046875 0 C -0.679688 0 -1.210938 -0.117188 -1.546875 -0.359375 C -1.890625 -0.597656 -2.003906 -0.914062 -1.890625 -1.3125 C -1.773438 -1.644531 -1.484375 -1.9375 -1.015625 -2.1875 C -0.585938 -2.414062 -0.234375 -2.679688 0.046875 -2.984375 C 0.328125 -3.296875 0.5625 -3.789062 0.75 -4.46875 L 7.15625 -25.46875 C 7.238281 -25.71875 7.28125 -25.925781 7.28125 -26.09375 C 7.28125 -26.40625 7.203125 -26.660156 7.046875 -26.859375 C 6.890625 -27.054688 6.6875 -27.25 6.4375 -27.4375 C 6.15625 -27.664062 5.953125 -27.863281 5.828125 -28.03125 C 5.703125 -28.195312 5.679688 -28.421875 5.765625 -28.703125 C 5.929688 -29.347656 6.8125 -29.910156 8.40625 -30.390625 C 10.007812 -30.867188 11.679688 -31.109375 13.421875 -31.109375 C 15.054688 -31.109375 16.257812 -30.796875 17.03125 -30.171875 C 17.800781 -29.554688 18.1875 -28.71875 18.1875 -27.65625 C 18.1875 -27.039062 18.085938 -26.4375 17.890625 -25.84375 L 15.609375 -18.4375 C 16.710938 -19.863281 17.875 -20.859375 19.09375 -21.421875 C 20.3125 -21.984375 21.632812 -22.265625 23.0625 -22.265625 C 24.78125 -22.265625 26.164062 -21.742188 27.21875 -20.703125 C 28.269531 -19.671875 28.796875 -18.328125 28.796875 -16.671875 C 28.796875 -15.796875 28.65625 -14.9375 28.375 -14.09375 Z M 25.796875 -5.8125 "/></g></g><g style="fill:#e27224;fill-opacity:1;"><g transform="translate(119.27543, 42.607929)"><path style="stroke:none" d="M 14.265625 -22.484375 C 17.828125 -22.484375 20.410156 -21.910156 22.015625 -20.765625 C 23.617188 -19.628906 24.421875 -18.179688 24.421875 -16.421875 C 24.421875 -15.878906 24.363281 -15.382812 24.25 -14.9375 C 23.820312 -13.09375 22.644531 -11.769531 20.71875 -10.96875 C 18.800781 -10.164062 16.539062 -9.765625 13.9375 -9.765625 C 12.613281 -9.765625 11.378906 -9.847656 10.234375 -10.015625 C 10.203125 -8.554688 10.59375 -7.53125 11.40625 -6.9375 C 12.21875 -6.351562 13.351562 -6.0625 14.8125 -6.0625 C 15.488281 -6.0625 16.132812 -6.140625 16.75 -6.296875 C 17.363281 -6.453125 18.148438 -6.679688 19.109375 -6.984375 C 19.898438 -7.265625 20.429688 -7.40625 20.703125 -7.40625 C 21.015625 -7.40625 21.171875 -7.222656 21.171875 -6.859375 C 21.203125 -5.878906 20.835938 -4.847656 20.078125 -3.765625 C 19.316406 -2.679688 18.191406 -1.757812 16.703125 -1 C 15.222656 -0.25 13.429688 0.125 11.328125 0.125 C 8.210938 0.125 5.65625 -0.660156 3.65625 -2.234375 C 1.664062 -3.804688 0.671875 -6.09375 0.671875 -9.09375 C 0.671875 -9.9375 0.785156 -10.914062 1.015625 -12.03125 C 1.710938 -15.488281 3.242188 -18.09375 5.609375 -19.84375 C 7.984375 -21.601562 10.867188 -22.484375 14.265625 -22.484375 Z M 10.53125 -12.546875 C 10.632812 -12.515625 10.785156 -12.5 10.984375 -12.5 C 12.160156 -12.5 13.054688 -13.046875 13.671875 -14.140625 C 14.296875 -15.234375 14.59375 -16.457031 14.5625 -17.8125 C 14.53125 -18.59375 14.304688 -18.984375 13.890625 -18.984375 C 13.578125 -18.984375 13.210938 -18.738281 12.796875 -18.25 C 12.378906 -17.757812 11.960938 -17.019531 11.546875 -16.03125 C 11.140625 -15.050781 10.800781 -13.890625 10.53125 -12.546875 Z M 10.53125 -12.546875 "/></g></g><g style="fill:#e27224;fill-opacity:1;"><g transform="translate(139.938605, 42.607929)"><path style="stroke:none" d="M 20.671875 -22.265625 C 22.242188 -22.265625 23.5 -21.785156 24.4375 -20.828125 C 25.375 -19.878906 25.84375 -18.703125 25.84375 -17.296875 C 25.84375 -16.765625 25.785156 -16.273438 25.671875 -15.828125 C 25.390625 -14.671875 24.859375 -13.785156 24.078125 -13.171875 C 23.296875 -12.554688 22.351562 -12.25 21.25 -12.25 C 20.1875 -12.25 19.378906 -12.5 18.828125 -13 C 18.285156 -13.507812 17.804688 -14.1875 17.390625 -15.03125 C 17.160156 -15.507812 16.945312 -15.859375 16.75 -16.078125 C 16.550781 -16.304688 16.328125 -16.421875 16.078125 -16.421875 C 15.796875 -16.421875 15.550781 -16.304688 15.34375 -16.078125 C 15.132812 -15.859375 14.945312 -15.46875 14.78125 -14.90625 L 11.53125 -4.375 C 11.476562 -4.238281 11.453125 -4.03125 11.453125 -3.75 C 11.453125 -3.382812 11.554688 -3.082031 11.765625 -2.84375 C 11.972656 -2.601562 12.257812 -2.367188 12.625 -2.140625 C 12.96875 -1.921875 13.191406 -1.738281 13.296875 -1.59375 C 13.410156 -1.457031 13.453125 -1.273438 13.421875 -1.046875 C 13.367188 -0.679688 13.164062 -0.414062 12.8125 -0.25 C 12.46875 -0.0820312 11.875 0 11.03125 0 L 0.25 0 C -0.476562 0 -1.003906 -0.117188 -1.328125 -0.359375 C -1.648438 -0.597656 -1.769531 -0.914062 -1.6875 -1.3125 C -1.570312 -1.644531 -1.273438 -1.9375 -0.796875 -2.1875 C -0.378906 -2.414062 -0.03125 -2.679688 0.25 -2.984375 C 0.53125 -3.296875 0.769531 -3.789062 0.96875 -4.46875 L 4.71875 -16.625 C 4.769531 -16.769531 4.796875 -16.96875 4.796875 -17.21875 C 4.796875 -17.519531 4.734375 -17.753906 4.609375 -17.921875 C 4.484375 -18.097656 4.28125 -18.3125 4 -18.5625 C 3.71875 -18.789062 3.519531 -18.988281 3.40625 -19.15625 C 3.289062 -19.320312 3.28125 -19.546875 3.375 -19.828125 C 3.539062 -20.472656 4.421875 -21.039062 6.015625 -21.53125 C 7.617188 -22.019531 9.289062 -22.265625 11.03125 -22.265625 C 12.175781 -22.265625 13.128906 -22.003906 13.890625 -21.484375 C 14.648438 -20.960938 15.140625 -20.226562 15.359375 -19.28125 C 16.710938 -21.269531 18.484375 -22.265625 20.671875 -22.265625 Z M 20.671875 -22.265625 "/></g></g><g style="fill:#e27224;fill-opacity:1;"><g transform="translate(161.401412, 42.607929)"><path style="stroke:none" d="M 13.84375 -22.640625 C 16.175781 -22.640625 18.191406 -22.429688 19.890625 -22.015625 C 21.585938 -21.597656 22.890625 -21.007812 23.796875 -20.25 C 24.710938 -19.488281 25.171875 -18.628906 25.171875 -17.671875 C 25.171875 -16.691406 24.785156 -15.894531 24.015625 -15.28125 C 23.242188 -14.664062 22.171875 -14.359375 20.796875 -14.359375 C 19.390625 -14.359375 18.203125 -14.707031 17.234375 -15.40625 C 16.265625 -16.101562 15.78125 -16.988281 15.78125 -18.0625 C 15.78125 -18.425781 15.835938 -18.773438 15.953125 -19.109375 C 15.453125 -19.253906 15.003906 -19.328125 14.609375 -19.328125 C 13.898438 -19.328125 13.316406 -19.15625 12.859375 -18.8125 C 12.398438 -18.476562 12.179688 -18.003906 12.203125 -17.390625 C 12.203125 -16.660156 12.566406 -16.039062 13.296875 -15.53125 C 14.023438 -15.03125 15.207031 -14.398438 16.84375 -13.640625 C 18.238281 -13.023438 19.390625 -12.457031 20.296875 -11.9375 C 21.210938 -11.414062 21.988281 -10.757812 22.625 -9.96875 C 23.257812 -9.1875 23.578125 -8.265625 23.578125 -7.203125 C 23.578125 -6.972656 23.519531 -6.550781 23.40625 -5.9375 C 22.957031 -4.050781 21.707031 -2.5625 19.65625 -1.46875 C 17.601562 -0.375 14.910156 0.171875 11.578125 0.171875 C 7.816406 0.171875 4.832031 -0.332031 2.625 -1.34375 C 0.425781 -2.351562 -0.671875 -3.742188 -0.671875 -5.515625 C -0.671875 -6.722656 -0.304688 -7.632812 0.421875 -8.25 C 1.148438 -8.863281 2.117188 -9.171875 3.328125 -9.171875 C 4.734375 -9.171875 5.929688 -8.734375 6.921875 -7.859375 C 7.921875 -6.992188 8.421875 -5.890625 8.421875 -4.546875 C 8.421875 -4.179688 8.378906 -3.800781 8.296875 -3.40625 C 8.960938 -3.238281 9.609375 -3.15625 10.234375 -3.15625 C 10.960938 -3.15625 11.5625 -3.347656 12.03125 -3.734375 C 12.507812 -4.128906 12.75 -4.679688 12.75 -5.390625 C 12.726562 -6.035156 12.40625 -6.585938 11.78125 -7.046875 C 11.164062 -7.515625 10.1875 -8.070312 8.84375 -8.71875 C 7.582031 -9.300781 6.539062 -9.851562 5.71875 -10.375 C 4.90625 -10.894531 4.210938 -11.546875 3.640625 -12.328125 C 3.066406 -13.117188 2.78125 -14.046875 2.78125 -15.109375 C 2.78125 -17.410156 3.738281 -19.238281 5.65625 -20.59375 C 7.582031 -21.957031 10.3125 -22.640625 13.84375 -22.640625 Z M 13.84375 -22.640625 "/></g></g><g style="fill:#1a334b;fill-opacity:1;"><g transform="translate(33.009433, 53.030746)"><path style="stroke:none" d="M 4.125 0 L 4.125 -2 L 2.265625 -2 L 2.265625 0 L 0.5625 0 L 0.5625 -5.265625 L 2.265625 -5.265625 L 2.265625 -3.34375 L 4.125 -3.34375 L 4.125 -5.265625 L 5.8125 -5.265625 L 5.8125 0 Z M 4.125 0 "/></g></g><g style="fill:#1a334b;fill-opacity:1;"><g transform="translate(39.725101, 53.030746)"><path style="stroke:none" d="M 3.1875 -5.359375 C 4.09375 -5.359375 4.789062 -5.125 5.28125 -4.65625 C 5.78125 -4.195312 6.03125 -3.523438 6.03125 -2.640625 C 6.03125 -1.742188 5.78125 -1.0625 5.28125 -0.59375 C 4.789062 -0.132812 4.09375 0.09375 3.1875 0.09375 C 2.28125 0.09375 1.578125 -0.132812 1.078125 -0.59375 C 0.585938 -1.0625 0.34375 -1.742188 0.34375 -2.640625 C 0.34375 -3.523438 0.585938 -4.195312 1.078125 -4.65625 C 1.578125 -5.125 2.28125 -5.359375 3.1875 -5.359375 Z M 3.1875 -4.09375 C 2.820312 -4.09375 2.546875 -3.984375 2.359375 -3.765625 C 2.171875 -3.546875 2.078125 -3.25 2.078125 -2.875 L 2.078125 -2.390625 C 2.078125 -2.015625 2.171875 -1.71875 2.359375 -1.5 C 2.546875 -1.28125 2.820312 -1.171875 3.1875 -1.171875 C 3.550781 -1.171875 3.828125 -1.28125 4.015625 -1.5 C 4.203125 -1.71875 4.296875 -2.015625 4.296875 -2.390625 L 4.296875 -2.875 C 4.296875 -3.25 4.203125 -3.546875 4.015625 -3.765625 C 3.828125 -3.984375 3.550781 -4.09375 3.1875 -4.09375 Z M 3.1875 -4.09375 "/></g></g><g style="fill:#1a334b;fill-opacity:1;"><g transform="translate(46.44077, 53.030746)"><path style="stroke:none" d="M 5.09375 0 L 5.09375 -1.90625 C 5.09375 -2.132812 5.097656 -2.375 5.109375 -2.625 C 5.128906 -2.875 5.148438 -3.082031 5.171875 -3.25 C 5.191406 -3.414062 5.207031 -3.519531 5.21875 -3.5625 L 5.1875 -3.5625 L 4.21875 0 L 2.890625 0 L 1.90625 -3.5625 L 1.875 -3.5625 C 1.882812 -3.507812 1.898438 -3.398438 1.921875 -3.234375 C 1.941406 -3.078125 1.960938 -2.875 1.984375 -2.625 C 2.003906 -2.375 2.015625 -2.132812 2.015625 -1.90625 L 2.015625 0 L 0.453125 0 L 0.453125 -5.265625 L 2.84375 -5.265625 L 3.640625 -2.234375 L 3.671875 -2.234375 L 4.46875 -5.265625 L 6.765625 -5.265625 L 6.765625 0 Z M 5.09375 0 "/></g></g><g style="fill:#1a334b;fill-opacity:1;"><g transform="translate(54.005463, 53.030746)"><path style="stroke:none" d="M 0.5625 -5.265625 L 5.125 -5.265625 L 5.125 -4 L 2.265625 -4 L 2.265625 -3.28125 L 4.703125 -3.28125 L 4.703125 -2.0625 L 2.265625 -2.0625 L 2.265625 -1.265625 L 5.171875 -1.265625 L 5.171875 0 L 0.5625 0 Z M 0.5625 -5.265625 "/></g></g><g style="fill:#1a334b;fill-opacity:1;"><g transform="translate(59.872116, 53.030746)"><path style="stroke:none" d=""/></g></g><g style="fill:#1a334b;fill-opacity:1;"><g transform="translate(62.763372, 53.030746)"><path style="stroke:none" d="M 2.78125 -5.359375 C 3.457031 -5.359375 4.007812 -5.222656 4.4375 -4.953125 C 4.875 -4.679688 5.097656 -4.273438 5.109375 -3.734375 L 5.109375 -3.640625 L 3.515625 -3.640625 L 3.515625 -3.671875 C 3.515625 -3.828125 3.457031 -3.957031 3.34375 -4.0625 C 3.238281 -4.164062 3.070312 -4.21875 2.84375 -4.21875 C 2.613281 -4.21875 2.4375 -4.179688 2.3125 -4.109375 C 2.195312 -4.046875 2.140625 -3.960938 2.140625 -3.859375 C 2.140625 -3.722656 2.222656 -3.617188 2.390625 -3.546875 C 2.554688 -3.484375 2.816406 -3.421875 3.171875 -3.359375 C 3.597656 -3.265625 3.945312 -3.171875 4.21875 -3.078125 C 4.488281 -2.984375 4.726562 -2.828125 4.9375 -2.609375 C 5.144531 -2.398438 5.25 -2.113281 5.25 -1.75 C 5.25 -1.125 5.035156 -0.660156 4.609375 -0.359375 C 4.191406 -0.0546875 3.632812 0.09375 2.9375 0.09375 C 2.113281 0.09375 1.472656 -0.0390625 1.015625 -0.3125 C 0.554688 -0.59375 0.328125 -1.082031 0.328125 -1.78125 L 1.921875 -1.78125 C 1.921875 -1.519531 1.988281 -1.34375 2.125 -1.25 C 2.269531 -1.164062 2.488281 -1.125 2.78125 -1.125 C 2.988281 -1.125 3.160156 -1.144531 3.296875 -1.1875 C 3.441406 -1.226562 3.515625 -1.320312 3.515625 -1.46875 C 3.515625 -1.59375 3.4375 -1.6875 3.28125 -1.75 C 3.132812 -1.820312 2.882812 -1.890625 2.53125 -1.953125 C 2.101562 -2.046875 1.75 -2.140625 1.46875 -2.234375 C 1.1875 -2.335938 0.9375 -2.503906 0.71875 -2.734375 C 0.507812 -2.960938 0.40625 -3.273438 0.40625 -3.671875 C 0.40625 -4.253906 0.628906 -4.679688 1.078125 -4.953125 C 1.523438 -5.222656 2.09375 -5.359375 2.78125 -5.359375 Z M 2.78125 -5.359375 "/></g></g><g style="fill:#1a334b;fill-opacity:1;"><g transform="translate(68.630025, 53.030746)"><path style="stroke:none" d="M 4.09375 0 L 3.875 -0.75 L 2.03125 -0.75 L 1.8125 0 L 0.078125 0 L 2 -5.265625 L 3.96875 -5.265625 L 5.890625 0 Z M 2.375 -1.921875 L 3.515625 -1.921875 L 2.96875 -3.796875 L 2.9375 -3.796875 Z M 2.375 -1.921875 "/></g></g><g style="fill:#1a334b;fill-opacity:1;"><g transform="translate(74.925008, 53.030746)"><path style="stroke:none" d="M 0.5625 -5.265625 L 4.828125 -5.265625 L 4.828125 -4 L 2.265625 -4 L 2.265625 -3.09375 L 4.46875 -3.09375 L 4.46875 -1.890625 L 2.265625 -1.890625 L 2.265625 0 L 0.5625 0 Z M 0.5625 -5.265625 "/></g></g><g style="fill:#1a334b;fill-opacity:1;"><g transform="translate(80.370975, 53.030746)"><path style="stroke:none" d="M 0.5625 -5.265625 L 5.125 -5.265625 L 5.125 -4 L 2.265625 -4 L 2.265625 -3.28125 L 4.703125 -3.28125 L 4.703125 -2.0625 L 2.265625 -2.0625 L 2.265625 -1.265625 L 5.171875 -1.265625 L 5.171875 0 L 0.5625 0 Z M 0.5625 -5.265625 "/></g></g><g style="fill:#1a334b;fill-opacity:1;"><g transform="translate(86.237628, 53.030746)"><path style="stroke:none" d="M 3.59375 -3.921875 L 3.59375 0 L 1.90625 0 L 1.90625 -3.921875 L 0.171875 -3.921875 L 0.171875 -5.265625 L 5.328125 -5.265625 L 5.328125 -3.921875 Z M 3.59375 -3.921875 "/></g></g><g style="fill:#1a334b;fill-opacity:1;"><g transform="translate(92.10428, 53.030746)"><path style="stroke:none" d="M 3.828125 0 L 2.140625 0 L 2.140625 -2.046875 L 0.046875 -5.265625 L 2 -5.265625 L 3.015625 -3.515625 L 3.046875 -3.515625 L 4.046875 -5.265625 L 5.890625 -5.265625 L 3.828125 -2.046875 Z M 3.828125 0 "/></g></g><g style="fill:#1a334b;fill-opacity:1;"><g transform="translate(98.399263, 53.030746)"><path style="stroke:none" d=""/></g></g><g style="fill:#1a334b;fill-opacity:1;"><g transform="translate(101.29052, 53.030746)"><path style="stroke:none" d="M 2.78125 -5.359375 C 3.457031 -5.359375 4.007812 -5.222656 4.4375 -4.953125 C 4.875 -4.679688 5.097656 -4.273438 5.109375 -3.734375 L 5.109375 -3.640625 L 3.515625 -3.640625 L 3.515625 -3.671875 C 3.515625 -3.828125 3.457031 -3.957031 3.34375 -4.0625 C 3.238281 -4.164062 3.070312 -4.21875 2.84375 -4.21875 C 2.613281 -4.21875 2.4375 -4.179688 2.3125 -4.109375 C 2.195312 -4.046875 2.140625 -3.960938 2.140625 -3.859375 C 2.140625 -3.722656 2.222656 -3.617188 2.390625 -3.546875 C 2.554688 -3.484375 2.816406 -3.421875 3.171875 -3.359375 C 3.597656 -3.265625 3.945312 -3.171875 4.21875 -3.078125 C 4.488281 -2.984375 4.726562 -2.828125 4.9375 -2.609375 C 5.144531 -2.398438 5.25 -2.113281 5.25 -1.75 C 5.25 -1.125 5.035156 -0.660156 4.609375 -0.359375 C 4.191406 -0.0546875 3.632812 0.09375 2.9375 0.09375 C 2.113281 0.09375 1.472656 -0.0390625 1.015625 -0.3125 C 0.554688 -0.59375 0.328125 -1.082031 0.328125 -1.78125 L 1.921875 -1.78125 C 1.921875 -1.519531 1.988281 -1.34375 2.125 -1.25 C 2.269531 -1.164062 2.488281 -1.125 2.78125 -1.125 C 2.988281 -1.125 3.160156 -1.144531 3.296875 -1.1875 C 3.441406 -1.226562 3.515625 -1.320312 3.515625 -1.46875 C 3.515625 -1.59375 3.4375 -1.6875 3.28125 -1.75 C 3.132812 -1.820312 2.882812 -1.890625 2.53125 -1.953125 C 2.101562 -2.046875 1.75 -2.140625 1.46875 -2.234375 C 1.1875 -2.335938 0.9375 -2.503906 0.71875 -2.734375 C 0.507812 -2.960938 0.40625 -3.273438 0.40625 -3.671875 C 0.40625 -4.253906 0.628906 -4.679688 1.078125 -4.953125 C 1.523438 -5.222656 2.09375 -5.359375 2.78125 -5.359375 Z M 2.78125 -5.359375 "/></g></g><g style="fill:#1a334b;fill-opacity:1;"><g transform="translate(107.157173, 53.030746)"><path style="stroke:none" d="M 3.1875 -5.359375 C 4.09375 -5.359375 4.789062 -5.125 5.28125 -4.65625 C 5.78125 -4.195312 6.03125 -3.523438 6.03125 -2.640625 C 6.03125 -1.742188 5.78125 -1.0625 5.28125 -0.59375 C 4.789062 -0.132812 4.09375 0.09375 3.1875 0.09375 C 2.28125 0.09375 1.578125 -0.132812 1.078125 -0.59375 C 0.585938 -1.0625 0.34375 -1.742188 0.34375 -2.640625 C 0.34375 -3.523438 0.585938 -4.195312 1.078125 -4.65625 C 1.578125 -5.125 2.28125 -5.359375 3.1875 -5.359375 Z M 3.1875 -4.09375 C 2.820312 -4.09375 2.546875 -3.984375 2.359375 -3.765625 C 2.171875 -3.546875 2.078125 -3.25 2.078125 -2.875 L 2.078125 -2.390625 C 2.078125 -2.015625 2.171875 -1.71875 2.359375 -1.5 C 2.546875 -1.28125 2.820312 -1.171875 3.1875 -1.171875 C 3.550781 -1.171875 3.828125 -1.28125 4.015625 -1.5 C 4.203125 -1.71875 4.296875 -2.015625 4.296875 -2.390625 L 4.296875 -2.875 C 4.296875 -3.25 4.203125 -3.546875 4.015625 -3.765625 C 3.828125 -3.984375 3.550781 -4.09375 3.1875 -4.09375 Z M 3.1875 -4.09375 "/></g></g><g style="fill:#1a334b;fill-opacity:1;"><g transform="translate(113.872841, 53.030746)"><path style="stroke:none" d="M 0.5625 -5.265625 L 2.265625 -5.265625 L 2.265625 -1.34375 L 4.96875 -1.34375 L 4.96875 0 L 0.5625 0 Z M 0.5625 -5.265625 "/></g></g><g style="fill:#1a334b;fill-opacity:1;"><g transform="translate(119.119942, 53.030746)"><path style="stroke:none" d="M 5.8125 -2.125 C 5.8125 -1.40625 5.582031 -0.851562 5.125 -0.46875 C 4.675781 -0.09375 4.03125 0.09375 3.1875 0.09375 C 2.351562 0.09375 1.707031 -0.09375 1.25 -0.46875 C 0.789062 -0.851562 0.5625 -1.40625 0.5625 -2.125 L 0.5625 -5.265625 L 2.265625 -5.265625 L 2.265625 -2.140625 C 2.265625 -1.847656 2.34375 -1.613281 2.5 -1.4375 C 2.65625 -1.257812 2.882812 -1.171875 3.1875 -1.171875 C 3.488281 -1.171875 3.71875 -1.257812 3.875 -1.4375 C 4.039062 -1.613281 4.125 -1.847656 4.125 -2.140625 L 4.125 -5.265625 L 5.8125 -5.265625 Z M 5.8125 -2.125 "/></g></g><g style="fill:#1a334b;fill-opacity:1;"><g transform="translate(125.83561, 53.030746)"><path style="stroke:none" d="M 3.59375 -3.921875 L 3.59375 0 L 1.90625 0 L 1.90625 -3.921875 L 0.171875 -3.921875 L 0.171875 -5.265625 L 5.328125 -5.265625 L 5.328125 -3.921875 Z M 3.59375 -3.921875 "/></g></g><g style="fill:#1a334b;fill-opacity:1;"><g transform="translate(131.702263, 53.030746)"><path style="stroke:none" d="M 0.640625 0 L 0.640625 -5.265625 L 2.328125 -5.265625 L 2.328125 0 Z M 0.640625 0 "/></g></g><g style="fill:#1a334b;fill-opacity:1;"><g transform="translate(135.02185, 53.030746)"><path style="stroke:none" d="M 3.1875 -5.359375 C 4.09375 -5.359375 4.789062 -5.125 5.28125 -4.65625 C 5.78125 -4.195312 6.03125 -3.523438 6.03125 -2.640625 C 6.03125 -1.742188 5.78125 -1.0625 5.28125 -0.59375 C 4.789062 -0.132812 4.09375 0.09375 3.1875 0.09375 C 2.28125 0.09375 1.578125 -0.132812 1.078125 -0.59375 C 0.585938 -1.0625 0.34375 -1.742188 0.34375 -2.640625 C 0.34375 -3.523438 0.585938 -4.195312 1.078125 -4.65625 C 1.578125 -5.125 2.28125 -5.359375 3.1875 -5.359375 Z M 3.1875 -4.09375 C 2.820312 -4.09375 2.546875 -3.984375 2.359375 -3.765625 C 2.171875 -3.546875 2.078125 -3.25 2.078125 -2.875 L 2.078125 -2.390625 C 2.078125 -2.015625 2.171875 -1.71875 2.359375 -1.5 C 2.546875 -1.28125 2.820312 -1.171875 3.1875 -1.171875 C 3.550781 -1.171875 3.828125 -1.28125 4.015625 -1.5 C 4.203125 -1.71875 4.296875 -2.015625 4.296875 -2.390625 L 4.296875 -2.875 C 4.296875 -3.25 4.203125 -3.546875 4.015625 -3.765625 C 3.828125 -3.984375 3.550781 -4.09375 3.1875 -4.09375 Z M 3.1875 -4.09375 "/></g></g><g style="fill:#1a334b;fill-opacity:1;"><g transform="translate(141.737518, 53.030746)"><path style="stroke:none" d="M 4.328125 0 L 2.125 -2.5625 L 2.125 0 L 0.5625 0 L 0.5625 -5.265625 L 2.046875 -5.265625 L 4.25 -2.671875 L 4.25 -5.265625 L 5.8125 -5.265625 L 5.8125 0 Z M 4.328125 0 "/></g></g><g style="fill:#1a334b;fill-opacity:1;"><g transform="translate(148.453186, 53.030746)"><path style="stroke:none" d="M 2.78125 -5.359375 C 3.457031 -5.359375 4.007812 -5.222656 4.4375 -4.953125 C 4.875 -4.679688 5.097656 -4.273438 5.109375 -3.734375 L 5.109375 -3.640625 L 3.515625 -3.640625 L 3.515625 -3.671875 C 3.515625 -3.828125 3.457031 -3.957031 3.34375 -4.0625 C 3.238281 -4.164062 3.070312 -4.21875 2.84375 -4.21875 C 2.613281 -4.21875 2.4375 -4.179688 2.3125 -4.109375 C 2.195312 -4.046875 2.140625 -3.960938 2.140625 -3.859375 C 2.140625 -3.722656 2.222656 -3.617188 2.390625 -3.546875 C 2.554688 -3.484375 2.816406 -3.421875 3.171875 -3.359375 C 3.597656 -3.265625 3.945312 -3.171875 4.21875 -3.078125 C 4.488281 -2.984375 4.726562 -2.828125 4.9375 -2.609375 C 5.144531 -2.398438 5.25 -2.113281 5.25 -1.75 C 5.25 -1.125 5.035156 -0.660156 4.609375 -0.359375 C 4.191406 -0.0546875 3.632812 0.09375 2.9375 0.09375 C 2.113281 0.09375 1.472656 -0.0390625 1.015625 -0.3125 C 0.554688 -0.59375 0.328125 -1.082031 0.328125 -1.78125 L 1.921875 -1.78125 C 1.921875 -1.519531 1.988281 -1.34375 2.125 -1.25 C 2.269531 -1.164062 2.488281 -1.125 2.78125 -1.125 C 2.988281 -1.125 3.160156 -1.144531 3.296875 -1.1875 C 3.441406 -1.226562 3.515625 -1.320312 3.515625 -1.46875 C 3.515625 -1.59375 3.4375 -1.6875 3.28125 -1.75 C 3.132812 -1.820312 2.882812 -1.890625 2.53125 -1.953125 C 2.101562 -2.046875 1.75 -2.140625 1.46875 -2.234375 C 1.1875 -2.335938 0.9375 -2.503906 0.71875 -2.734375 C 0.507812 -2.960938 0.40625 -3.273438 0.40625 -3.671875 C 0.40625 -4.253906 0.628906 -4.679688 1.078125 -4.953125 C 1.523438 -5.222656 2.09375 -5.359375 2.78125 -5.359375 Z M 2.78125 -5.359375 "/></g></g></g></svg>